<svg width="347.3875244140625px" height="92.8000015258789px" xmlns="http://www.w3.org/2000/svg" viewBox="76.30623779296874 28.59999923706055 347.3875244140625 92.8000015258789" style="background: rgba(0, 0, 0, 0);" preserveAspectRatio="xMidYMid"><defs><filter id="editing-hole" x="-100%" y="-100%" width="300%" height="300%"><feFlood flood-color="#000" result="black"></feFlood><feMorphology operator="dilate" radius="2" in="SourceGraphic" result="erode"></feMorphology><feGaussianBlur in="erode" stdDeviation="4" result="blur"></feGaussianBlur><feOffset in="blur" dx="2" dy="2" result="offset"></feOffset><feComposite operator="atop" in="offset" in2="black" result="merge"></feComposite><feComposite operator="in" in="merge" in2="SourceGraphic" result="inner-shadow"></feComposite></filter></defs><g filter="url(#editing-hole)"><g transform="translate(132.99293327331543, 94.80499458312988)"><path d="M-5.01 6.35L-5.01 6.35L-5.01 6.35Q-2.67 6.07-1.20 3.04L-1.20 3.04L-1.20 3.04Q0.32-0.05 1.70-7.13L1.70-7.13L6.16-30.36L16.15-30.36L11.68-7.13L11.68-7.13Q9.98 1.89 7.18 5.43L7.18 5.43L7.18 5.43Q5.70 7.27 3.84 8.00L3.84 8.00L3.84 8.00Q1.98 8.74-0.05 8.74L-0.05 8.74L-0.05 8.74Q-2.07 8.74-3.38 8.00L-3.38 8.00L-3.38 8.00Q-4.69 7.27-5.01 6.35ZM19.16-1.38L19.16-1.38L19.16-1.38Q18.08-2.58 17.60-4.46L17.60-4.46L17.60-4.46Q17.11-6.35 17.11-9.43L17.11-9.43L17.11-9.43Q17.11-12.51 18.17-15.32L18.17-15.32L18.17-15.32Q19.23-18.12 21.16-20.15L21.16-20.15L21.16-20.15Q25.12-24.38 31.65-24.38L31.65-24.38L31.65-24.38Q33.99-24.38 35.70-23.60L35.70-23.60L43.56-24.38L40.16-6.44L40.16-6.44Q40.02-5.89 40.02-4.88L40.02-4.88L40.02-4.88Q40.02-3.86 40.64-3.22L40.64-3.22L40.64-3.22Q41.26-2.58 42.18-2.48L42.18-2.48L42.18-2.48Q41.72-0.92 40.04 0L40.04 0L40.04 0Q38.36 0.92 36.48 0.92L36.48 0.92L36.48 0.92Q34.59 0.92 33.33 0.21L33.33 0.21L33.33 0.21Q32.06-0.51 31.69-1.70L31.69-1.70L31.69-1.70Q30.96-0.55 29.39 0.18L29.39 0.18L29.39 0.18Q27.83 0.92 25.74 0.92L25.74 0.92L25.74 0.92Q23.64 0.92 21.94 0.37L21.94 0.37L21.94 0.37Q20.24-0.18 19.16-1.38ZM28.87-20.06L28.87-20.06L28.87-20.06Q28.34-19.23 27.88-17.82L27.88-17.82L27.88-17.82Q27.42-16.42 26.66-12.67L26.66-12.67L26.66-12.67Q25.90-8.92 25.90-6.26L25.90-6.26L25.90-6.26Q25.90-3.59 26.31-2.81L26.31-2.81L26.31-2.81Q26.73-2.02 27.46-2.02L27.46-2.02L27.46-2.02Q28.93-2.02 30.02-3.43L30.02-3.43L30.02-3.43Q31.10-4.83 31.51-7.31L31.51-7.31L33.95-20.79L33.95-20.79Q32.98-21.62 31.86-21.62L31.86-21.62L31.86-21.62Q30.73-21.62 30.06-21.25L30.06-21.25L30.06-21.25Q29.39-20.88 28.87-20.06ZM60.67-5.20L60.67-5.20L60.67-5.20Q58.28-2.71 53.91-2.71L53.91-2.71L53.91-2.71Q48.44-2.71 47.29-6.72L47.29-6.72L47.29-6.72Q46.92-7.91 46.92-9.25L46.92-9.25L46.92-9.25Q46.92-10.58 47.20-11.96L47.20-11.96L49.36-23.46L58.70-24.38L56.17-10.99L56.17-10.99Q56.07-10.40 55.94-9.75L55.94-9.75L55.94-9.75Q55.80-9.11 55.80-8.44L55.80-8.44L55.80-8.44Q55.80-7.77 56.03-7.34L56.03-7.34L56.03-7.34Q56.26-6.90 56.58-6.62L56.58-6.62L56.58-6.62Q57.13-6.26 58.12-6.26L58.12-6.26L58.12-6.26Q59.11-6.26 59.96-7.45L59.96-7.45L59.96-7.45Q60.81-8.65 61.23-10.72L61.23-10.72L63.76-23.46L72.82-24.38L69.37-6.30L69.37-6.30Q67.67 2.53 64.17 6.03L64.17 6.03L64.17 6.03Q62.38 7.82 60.05 8.53L60.05 8.53L60.05 8.53Q57.73 9.25 54.74 9.25L54.74 9.25L54.74 9.25Q49.91 9.25 47.15 7.73L47.15 7.73L47.15 7.73Q44.39 6.21 44.39 3.68L44.39 3.68L44.39 3.68Q44.39 1.79 45.82 0.71L45.82 0.71L45.82 0.71Q47.24-0.37 49.45-0.37L49.45-0.37L49.45-0.37Q51.38-0.37 52.85 0.46L52.85 0.46L52.85 0.46Q53.73 0.97 54.14 1.61L54.14 1.61L54.14 1.61Q53.08 2.53 53.08 4.05L53.08 4.05L53.08 4.05Q53.08 6.07 54.92 6.07L54.92 6.07L54.92 6.07Q57.96 6.07 59.71-0.92L59.71-0.92L59.71-0.92Q60.21-2.99 60.67-5.20ZM76.47-1.38L76.47-1.38L76.47-1.38Q75.39-2.58 74.91-4.46L74.91-4.46L74.91-4.46Q74.43-6.35 74.43-9.43L74.43-9.43L74.43-9.43Q74.43-12.51 75.49-15.32L75.49-15.32L75.49-15.32Q76.54-18.12 78.48-20.15L78.48-20.15L78.48-20.15Q82.43-24.38 88.96-24.38L88.96-24.38L88.96-24.38Q91.31-24.38 93.01-23.60L93.01-23.60L100.88-24.38L97.47-6.44L97.47-6.44Q97.34-5.89 97.34-4.88L97.34-4.88L97.34-4.88Q97.34-3.86 97.96-3.22L97.96-3.22L97.96-3.22Q98.58-2.58 99.50-2.48L99.50-2.48L99.50-2.48Q99.04-0.92 97.36 0L97.36 0L97.36 0Q95.68 0.92 93.79 0.92L93.79 0.92L93.79 0.92Q91.91 0.92 90.64 0.21L90.64 0.21L90.64 0.21Q89.38-0.51 89.01-1.70L89.01-1.70L89.01-1.70Q88.27-0.55 86.71 0.18L86.71 0.18L86.71 0.18Q85.15 0.92 83.05 0.92L83.05 0.92L83.05 0.92Q80.96 0.92 79.26 0.37L79.26 0.37L79.26 0.37Q77.56-0.18 76.47-1.38ZM86.18-20.06L86.18-20.06L86.18-20.06Q85.65-19.23 85.19-17.82L85.19-17.82L85.19-17.82Q84.73-16.42 83.97-12.67L83.97-12.67L83.97-12.67Q83.21-8.92 83.21-6.26L83.21-6.26L83.21-6.26Q83.21-3.59 83.63-2.81L83.63-2.81L83.63-2.81Q84.04-2.02 84.78-2.02L84.78-2.02L84.78-2.02Q86.25-2.02 87.33-3.43L87.33-3.43L87.33-3.43Q88.41-4.83 88.83-7.31L88.83-7.31L91.26-20.79L91.26-20.79Q90.30-21.62 89.17-21.62L89.17-21.62L89.17-21.62Q88.04-21.62 87.38-21.25L87.38-21.25L87.38-21.25Q86.71-20.88 86.18-20.06ZM117.12-16.15L117.12-16.15L117.12-16.15Q117.76-17.85 117.76-19.32L117.76-19.32L117.76-19.32Q117.76-22.03 115.55-22.03L115.55-22.03L115.55-22.03Q114.40-22.03 113.46-21.00L113.46-21.00L113.46-21.00Q112.52-19.96 112.52-18.68L112.52-18.68L112.52-18.68Q112.52-17.76 113.25-17.02L113.25-17.02L113.25-17.02Q114.31-16.01 117.02-14.35L117.02-14.35L117.02-14.35Q119.74-12.70 120.77-11.34L120.77-11.34L120.77-11.34Q121.81-9.98 121.81-8.12L121.81-8.12L121.81-8.12Q121.81-6.26 120.91-4.55L120.91-4.55L120.91-4.55Q120.01-2.85 118.40-1.66L118.40-1.66L118.40-1.66Q114.95 0.92 109.43 0.92L109.43 0.92L109.43 0.92Q106.44 0.92 104.14-0.64L104.14-0.64L104.14-0.64Q101.84-2.16 101.84-3.96L101.84-3.96L101.84-3.96Q101.84-5.75 103.15-6.81L103.15-6.81L103.15-6.81Q104.47-7.87 106.40-7.87L106.40-7.87L106.40-7.87Q108.33-7.87 109.53-7.13L109.53-7.13L109.53-7.13Q108.93-5.61 108.93-4.60L108.93-4.60L108.93-4.60Q108.93-1.56 111.50-1.56L111.50-1.56L111.50-1.56Q112.61-1.56 113.34-2.25L113.34-2.25L113.34-2.25Q114.08-2.94 114.08-4.14L114.08-4.14L114.08-4.14Q114.08-6.49 110.12-8.97L110.12-8.97L110.12-8.97Q106.90-11.09 106.17-11.91L106.17-11.91L106.17-11.91Q104.93-13.39 104.93-15.23L104.93-15.23L104.93-15.23Q104.93-17.07 105.80-18.81L105.80-18.81L105.80-18.81Q106.67-20.56 108.28-21.80L108.28-21.80L108.28-21.80Q111.64-24.38 117.48-24.38L117.48-24.38L117.48-24.38Q120.47-24.38 122.24-23.18L122.24-23.18L122.24-23.18Q124.02-21.99 124.02-19.96L124.02-19.96L124.02-19.96Q124.02-17.94 122.80-16.79L122.80-16.79L122.80-16.79Q121.58-15.64 119.37-15.64L119.37-15.64L119.37-15.64Q117.85-15.64 117.12-16.15ZM140.48-1.93L140.48-1.93L140.48-1.93Q138.28 0.92 132.80 0.92L132.80 0.92L132.80 0.92Q129.95 0.92 127.88-0.80L127.88-0.80L127.88-0.80Q125.81-2.53 125.81-5.01L125.81-5.01L125.81-5.01Q125.81-6.39 125.95-7.08L125.95-7.08L129.03-23.46L138.37-24.38L135.01-6.62L135.01-6.62Q134.83-5.61 134.83-5.01L134.83-5.01L134.83-5.01Q134.83-2.35 136.44-2.35L136.44-2.35L136.44-2.35Q138.23-2.35 139.52-4.78L139.52-4.78L139.52-4.78Q139.93-5.57 140.12-6.58L140.12-6.58L143.38-23.46L152.44-24.38L149.04-6.44L149.04-6.44Q148.90-5.75 148.90-5.01L148.90-5.01L148.90-5.01Q148.90-4.28 149.32-3.47L149.32-3.47L149.32-3.47Q149.73-2.67 151.06-2.48L151.06-2.48L151.06-2.48Q150.79-1.38 149.82-0.64L149.82-0.64L149.82-0.64Q147.80 0.92 145.61 0.92L145.61 0.92L145.61 0.92Q143.43 0.92 142.14 0.14L142.14 0.14L142.14 0.14Q140.85-0.64 140.48-1.93ZM169.33-12.93L169.33-12.93L169.33-12.93Q170.98-15.87 170.98-18.86L170.98-18.86L170.98-18.86Q170.98-20.84 169.56-20.84L169.56-20.84L169.56-20.84Q168.45-20.84 167.30-18.95L167.30-18.95L167.30-18.95Q166.11-17.07 165.74-14.63L165.74-14.63L163.35 0L153.82 0.92L158.52-23.46L166.11-24.38L165.28-19.73L165.28-19.73Q167.53-24.38 172.59-24.38L172.59-24.38L172.59-24.38Q175.26-24.38 176.71-23L176.71-23L176.71-23Q178.16-21.62 178.16-18.79L178.16-18.79L178.16-18.79Q178.16-15.96 176.29-14.17L176.29-14.17L176.29-14.17Q174.43-12.37 171.26-12.37L171.26-12.37L171.26-12.37Q169.88-12.37 169.33-12.93ZM193.52-5.20L193.52-5.20L193.52-5.20Q191.13-2.71 186.76-2.71L186.76-2.71L186.76-2.71Q181.29-2.71 180.14-6.72L180.14-6.72L180.14-6.72Q179.77-7.91 179.77-9.25L179.77-9.25L179.77-9.25Q179.77-10.58 180.04-11.96L180.04-11.96L182.21-23.46L191.54-24.38L189.01-10.99L189.01-10.99Q188.92-10.40 188.78-9.75L188.78-9.75L188.78-9.75Q188.65-9.11 188.65-8.44L188.65-8.44L188.65-8.44Q188.65-7.77 188.88-7.34L188.88-7.34L188.88-7.34Q189.11-6.90 189.43-6.62L189.43-6.62L189.43-6.62Q189.98-6.26 190.97-6.26L190.97-6.26L190.97-6.26Q191.96-6.26 192.81-7.45L192.81-7.45L192.81-7.45Q193.66-8.65 194.07-10.72L194.07-10.72L196.60-23.46L205.67-24.38L202.22-6.30L202.22-6.30Q200.51 2.53 197.02 6.03L197.02 6.03L197.02 6.03Q195.22 7.82 192.90 8.53L192.90 8.53L192.90 8.53Q190.58 9.25 187.59 9.25L187.59 9.25L187.59 9.25Q182.76 9.25 180.00 7.73L180.00 7.73L180.00 7.73Q177.24 6.21 177.24 3.68L177.24 3.68L177.24 3.68Q177.24 1.79 178.66 0.71L178.66 0.71L178.66 0.71Q180.09-0.37 182.30-0.37L182.30-0.37L182.30-0.37Q184.23-0.37 185.70 0.46L185.70 0.46L185.70 0.46Q186.58 0.97 186.99 1.61L186.99 1.61L186.99 1.61Q185.93 2.53 185.93 4.05L185.93 4.05L185.93 4.05Q185.93 6.07 187.77 6.07L187.77 6.07L187.77 6.07Q190.81 6.07 192.56-0.92L192.56-0.92L192.56-0.92Q193.06-2.99 193.52-5.20ZM209.32-1.38L209.32-1.38L209.32-1.38Q208.24-2.58 207.76-4.46L207.76-4.46L207.76-4.46Q207.28-6.35 207.28-9.43L207.28-9.43L207.28-9.43Q207.28-12.51 208.33-15.32L208.33-15.32L208.33-15.32Q209.39-18.12 211.32-20.15L211.32-20.15L211.32-20.15Q215.28-24.38 221.81-24.38L221.81-24.38L221.81-24.38Q224.16-24.38 225.86-23.60L225.86-23.60L233.73-24.38L230.32-6.44L230.32-6.44Q230.18-5.89 230.18-4.88L230.18-4.88L230.18-4.88Q230.18-3.86 230.81-3.22L230.81-3.22L230.81-3.22Q231.43-2.58 232.35-2.48L232.35-2.48L232.35-2.48Q231.89-0.92 230.21 0L230.21 0L230.21 0Q228.53 0.92 226.64 0.92L226.64 0.92L226.64 0.92Q224.76 0.92 223.49 0.21L223.49 0.21L223.49 0.21Q222.23-0.51 221.86-1.70L221.86-1.70L221.86-1.70Q221.12-0.55 219.56 0.18L219.56 0.18L219.56 0.18Q217.99 0.92 215.90 0.92L215.90 0.92L215.90 0.92Q213.81 0.92 212.11 0.37L212.11 0.37L212.11 0.37Q210.40-0.18 209.32-1.38ZM219.03-20.06L219.03-20.06L219.03-20.06Q218.50-19.23 218.04-17.82L218.04-17.82L218.04-17.82Q217.58-16.42 216.82-12.67L216.82-12.67L216.82-12.67Q216.06-8.92 216.06-6.26L216.06-6.26L216.06-6.26Q216.06-3.59 216.48-2.81L216.48-2.81L216.48-2.81Q216.89-2.02 217.63-2.02L217.63-2.02L217.63-2.02Q219.10-2.02 220.18-3.43L220.18-3.43L220.18-3.43Q221.26-4.83 221.67-7.31L221.67-7.31L224.11-20.79L224.11-20.79Q223.15-21.62 222.02-21.62L222.02-21.62L222.02-21.62Q220.89-21.62 220.22-21.25L220.22-21.25L220.22-21.25Q219.56-20.88 219.03-20.06Z" fill="#ccc"></path></g></g><style>text {
  font-size: 64px;
  font-family: Arial Black;
  dominant-baseline: central;
  text-anchor: middle;
}</style></svg>